<svg height="50" viewBox="0 0 124 80" fill="none"
    xmlns="http://www.w3.org/2000/svg">
    <path fill-rule="evenodd" clip-rule="evenodd" d="M40.425 28.8678C39.628 29.8811 38.3529 30.6803 37.0777 30.5661C36.9183 29.196 37.5426 27.7403 38.2732 26.8411C39.0701 25.7992 40.4648 25.0571 41.5939 25C41.7267 26.4272 41.2087 27.8259 40.425 28.8678ZM41.5805 30.8372C40.4571 30.7678 39.432 31.2002 38.6041 31.5496C38.0713 31.7744 37.6201 31.9647 37.2768 31.9647C36.8916 31.9647 36.4218 31.7642 35.8943 31.539C35.2031 31.244 34.4129 30.9067 33.5842 30.9229C31.6848 30.9514 29.9182 32.1075 28.9486 33.9486C26.9562 37.6308 28.4305 43.0827 30.3565 46.0799C31.2996 47.5642 32.4286 49.1912 33.9163 49.1341C34.5708 49.1076 35.0416 48.8929 35.5288 48.6708C36.0898 48.415 36.6725 48.1493 37.5823 48.1493C38.4607 48.1493 39.0179 48.4081 39.5528 48.6565C40.0614 48.8927 40.5499 49.1195 41.275 49.1056C42.8157 49.077 43.7854 47.6213 44.7285 46.137C45.7462 44.5439 46.1934 42.9891 46.2613 42.7532L46.2693 42.7259C46.2676 42.7242 46.2551 42.718 46.2329 42.7071C45.8927 42.5397 43.2923 41.2606 43.2674 37.8306C43.2423 34.9516 45.3299 33.4929 45.6585 33.2633C45.6785 33.2493 45.692 33.2399 45.6981 33.2349C44.3698 31.1227 42.2977 30.8943 41.5805 30.8372ZM52.2466 48.9486V26.6983H60.017C64.0284 26.6983 66.8311 29.6669 66.8311 34.0057C66.8311 38.3444 63.9753 41.3415 59.9108 41.3415H55.461V48.9486H52.2466ZM55.4607 29.61H59.1666C61.956 29.61 63.5499 31.2085 63.5499 34.0201C63.5499 36.8317 61.956 38.4445 59.1533 38.4445H55.4607V29.61ZM77.4441 46.2796C76.594 48.0208 74.7212 49.1198 72.7022 49.1198C69.7136 49.1198 67.6282 47.2073 67.6282 44.3244C67.6282 41.4699 69.6471 39.8286 73.3796 39.586L77.391 39.3291V38.1017C77.391 36.2892 76.2885 35.3044 74.3227 35.3044C72.7022 35.3044 71.52 36.2035 71.2809 37.5736H68.3853C68.4783 34.6907 71.002 32.5927 74.4157 32.5927C78.095 32.5927 80.4859 34.6621 80.4859 37.8734V48.9485H77.5105V46.2796H77.4441ZM73.5654 46.4796C71.8519 46.4796 70.7627 45.5947 70.7627 44.2389C70.7627 42.8402 71.8121 42.0267 73.8178 41.8983L77.3908 41.6556V42.9116C77.3908 44.9953 75.7438 46.4796 73.5654 46.4796ZM90.3548 49.8192C89.0664 53.7155 87.592 55 84.4573 55C84.2182 55 83.4212 54.9715 83.2353 54.9144V52.2455C83.4345 52.274 83.926 52.3026 84.1783 52.3026C85.5996 52.3026 86.3966 51.6603 86.888 49.9905L87.1802 49.0057L81.7343 32.8068H85.0949L88.8804 45.9515H88.9469L92.7324 32.8068H96L90.3548 49.8192Z" fill="black"></path>
</svg>