<svg width="155" height="212" viewBox="0 0 155 212" fill="none"
    xmlns="http://www.w3.org/2000/svg">
    <path d="M0.305603 171.051L26.398 4.07693C26.5535 3.07843 27.019 2.1541 27.7287 1.43467C28.4384 0.715247 29.3563 0.237146 30.3525 0.067991C31.3488 -0.101164 32.3731 0.0471891 33.2804 0.492068C34.1878 0.936946 34.9323 1.65583 35.4087 2.54704L62.3925 52.8767L73.1499 32.3979C73.5586 31.6209 74.1719 30.9704 74.9235 30.5165C75.675 30.0627 76.5363 29.8228 77.4143 29.8228C78.2922 29.8228 79.1535 30.0627 79.9051 30.5165C80.6566 30.9704 81.2699 31.6209 81.6787 32.3979L154.499 171.051H0.305603Z" fill="#FFA000"/>
    <path d="M90.4484 106.013L62.3804 52.8648L0.305603 171.052L90.4484 106.013Z" fill="#F57C00"/>
    <path d="M154.499 171.051L134.514 47.3836C134.366 46.5123 133.981 45.6986 133.401 45.0313C132.822 44.3641 132.07 43.8691 131.228 43.6005C130.386 43.3319 129.487 43.3 128.628 43.5083C127.769 43.7166 126.984 44.1571 126.359 44.7816L0.305603 171.051L70.054 210.166C72.208 211.369 74.634 212 77.1011 212C79.5681 212 81.9941 211.369 84.1482 210.166L154.499 171.051Z" fill="#FFCA28"/>
    <path d="M134.514 47.3837C134.366 46.5124 133.981 45.6987 133.402 45.0314C132.822 44.3642 132.07 43.8692 131.228 43.6006C130.386 43.3319 129.487 43.3 128.628 43.5084C127.769 43.7167 126.984 44.1572 126.359 44.7817L101.351 69.8622L81.6668 32.386C81.258 31.609 80.6447 30.9584 79.8932 30.5046C79.1416 30.0508 78.2803 29.8109 77.4024 29.8109C76.5244 29.8109 75.6631 30.0508 74.9116 30.5046C74.16 30.9584 73.5467 31.609 73.138 32.386L62.3806 52.8648L35.3967 2.54715C34.9195 1.65576 34.174 0.937065 33.2658 0.492825C32.3575 0.0485851 31.3325 -0.098691 30.3359 0.0718503C29.3393 0.242392 28.4216 0.722109 27.7127 1.44308C27.0038 2.16405 26.5397 3.08974 26.3861 4.08908L0.305721 171.051H0.209351L0.293675 171.148L0.980319 171.485L101.29 71.0668L126.323 46.0104C126.948 45.3825 127.733 44.939 128.594 44.7287C129.455 44.5184 130.356 44.5494 131.201 44.8184C132.045 45.0873 132.798 45.5837 133.379 46.253C133.959 46.9223 134.343 47.7387 134.49 48.6124L154.306 171.172L154.499 171.051L134.514 47.3837ZM0.5346 170.823L26.3981 5.28167C26.5518 4.28233 27.0159 3.35664 27.7248 2.63567C28.4336 1.9147 29.3513 1.43498 30.3479 1.26444C31.3445 1.0939 32.3695 1.24117 33.2778 1.68541C34.1861 2.12965 34.9316 2.84835 35.4088 3.73974L62.3926 54.0694L73.15 33.5906C73.5588 32.8136 74.1721 32.1631 74.9236 31.7092C75.6752 31.2554 76.5365 31.0155 77.4144 31.0155C78.2924 31.0155 79.1536 31.2554 79.9052 31.7092C80.6568 32.1631 81.2701 32.8136 81.6788 33.5906L100.953 70.2476L0.5346 170.823Z" fill="white" fill-opacity="0.2"/>
    <path opacity="0.2" d="M84.1482 208.985C81.9941 210.188 79.5681 210.819 77.1011 210.819C74.634 210.819 72.208 210.188 70.054 208.985L0.474251 169.955L0.305603 171.051L70.054 210.154C72.208 211.356 74.634 211.988 77.1011 211.988C79.5681 211.988 81.9941 211.356 84.1482 210.154L154.499 171.051L154.318 169.943L84.1482 208.985Z" fill="#A52714"/>
</svg>
