<svg width="179" height="181" viewBox="0 0 179 181" fill="none"
    xmlns="http://www.w3.org/2000/svg">
    <g clip-path="url(#clip0_1933_256)">
        <path fill-rule="evenodd" clip-rule="evenodd" d="M89.5 0.0407715C40.0512 0.0407715 0 40.092 0 89.5408C0 129.145 25.6194 162.595 61.1956 174.454C65.6706 175.237 67.3487 172.552 67.3487 170.203C67.3487 168.077 67.2369 161.029 67.2369 153.533C44.75 157.673 38.9325 148.051 37.1425 143.017C36.1356 140.444 31.7725 132.501 27.9688 130.375C24.8362 128.697 20.3612 124.558 27.8569 124.446C34.905 124.334 39.9394 130.935 41.6175 133.62C49.6725 147.156 62.5381 143.353 67.6844 141.003C68.4675 135.186 70.8169 131.27 73.39 129.033C53.4762 126.795 32.6675 119.076 32.6675 84.842C32.6675 75.1089 36.1356 67.0539 41.8413 60.7889C40.9463 58.5514 37.8137 49.3776 42.7362 37.0714C42.7362 37.0714 50.2319 34.722 67.3487 46.2451C74.5087 44.2314 82.1163 43.2245 89.7238 43.2245C97.3313 43.2245 104.939 44.2314 112.099 46.2451C129.216 34.6101 136.711 37.0714 136.711 37.0714C141.634 49.3776 138.501 58.5514 137.606 60.7889C143.312 67.0539 146.78 74.997 146.78 84.842C146.78 119.188 125.859 126.795 105.946 129.033C109.19 131.83 111.987 137.2 111.987 145.59C111.987 157.561 111.875 167.182 111.875 170.203C111.875 172.552 113.553 175.349 118.028 174.454C153.381 162.595 179 129.033 179 89.5408C179 40.092 138.949 0.0407715 89.5 0.0407715Z" fill="#1B1F23"/>
    </g>
    <defs>
        <clipPath id="clip0_1933_256">
            <rect width="179" height="179" fill="white" transform="translate(0 0.0407715)"/>
        </clipPath>
    </defs>
</svg>
