<svg height="50" viewBox="0 0 124 80" fill="none"
    xmlns="http://www.w3.org/2000/svg">
    <path fill-rule="evenodd" clip-rule="evenodd" d="M59.0515 49.0309V39.6399H63.7914C65.7337 39.6399 67.3731 38.9744 68.7095 37.6619L69.0303 37.3292C71.4715 34.6117 71.3111 30.3784 68.7095 27.8643C67.4087 26.5333 65.6268 25.8123 63.7914 25.8493H56.1827V49.0309H59.0515ZM59.0519 36.7929V28.6959H63.8639C64.8975 28.6959 65.8777 29.1026 66.6084 29.8421C68.159 31.3949 68.1946 33.983 66.6976 35.5913C65.9669 36.3862 64.9332 36.8298 63.8639 36.7929H59.0519Z" fill="black"></path>
    <path fill-rule="evenodd" clip-rule="evenodd" d="M82.4125 34.4082C81.183 33.2436 79.508 32.652 77.3875 32.652C74.6612 32.652 72.612 33.6873 71.2577 35.7392L73.788 37.3845C74.7146 35.9795 75.9798 35.2771 77.5835 35.2771C78.5992 35.2771 79.5792 35.6653 80.3455 36.3677C81.0939 37.0332 81.5215 37.9945 81.5215 39.0113V39.6953C80.4167 39.0667 79.0269 38.734 77.3162 38.734C75.3205 38.734 73.7168 39.2146 72.5229 40.1944C71.329 41.1741 70.7231 42.4682 70.7231 44.1134C70.6875 45.6108 71.3112 47.0342 72.416 47.9955C73.5386 49.0307 74.9641 49.5484 76.6391 49.5484C78.617 49.5484 80.1851 48.6425 81.379 46.8309H81.5037V49.0307H84.2479V39.2516C84.2479 37.1996 83.642 35.5728 82.4125 34.4082ZM74.626 46.11C74.0379 45.6663 73.6815 44.9454 73.6815 44.169C73.6815 43.3001 74.0735 42.5792 74.8399 42.0061C75.6241 41.433 76.6043 41.1372 77.7627 41.1372C79.3667 41.1188 80.6142 41.4885 81.5053 42.2279C81.5053 43.485 81.0241 44.5757 80.0796 45.5C79.2241 46.3873 78.0657 46.8864 76.8538 46.8864C76.0518 46.9049 75.2676 46.6276 74.626 46.11Z" fill="black"></path>
    <path d="M90.4133 56L100 33.1696H96.8817L92.4447 44.5571H92.3913L87.8474 33.1696H84.729L91.0192 48.014L87.4554 56H90.4133Z" fill="black"></path>
    <path d="M49.1471 37.6065C49.1471 36.7007 49.0759 35.7949 48.9333 34.9076H36.8341V40.0282H43.7658C43.4807 41.6735 42.5541 43.1524 41.1998 44.0767V47.4042H45.3338C47.7572 45.0934 49.1471 41.6735 49.1471 37.6065Z" fill="black"></path>
    <path d="M36.8346 50.6209C40.2915 50.6209 43.2134 49.4377 45.3338 47.4042L41.1998 44.0767C40.0416 44.8901 38.5631 45.3524 36.8346 45.3524C33.4846 45.3524 30.6514 43.0046 29.6357 39.862H25.3769V43.3004C27.5509 47.7925 31.9878 50.6209 36.8346 50.6209Z" fill="black"></path>
    <path d="M29.6357 39.862C29.101 38.2167 29.1015 36.4235 29.6362 34.7597V31.3398H25.3767C23.5411 35.0925 23.5411 39.5291 25.3767 43.2818L29.6357 39.862Z" fill="black"></path>
    <path d="M36.8346 29.2693C38.67 29.2324 40.4341 29.9533 41.7527 31.2659L45.4234 27.4577C43.0891 25.2024 40.0242 23.9638 36.8346 24.0008C31.9878 24.0008 27.5507 26.8477 25.3767 31.3398L29.6357 34.7782C30.6514 31.6171 33.4846 29.2693 36.8346 29.2693Z" fill="black"></path>
</svg>