<svg width="147" height="147" viewBox="0 0 147 147" fill="none"
    xmlns="http://www.w3.org/2000/svg">
    <g clip-path="url(#clip0_1929_151)">
        <path d="M74.8402 135.133C109.619 135.133 137.813 108.139 137.813 74.8403C137.813 41.5414 109.619 14.5471 74.8402 14.5471C40.0614 14.5471 11.8673 41.5414 11.8673 74.8403C11.8673 108.139 40.0614 135.133 74.8402 135.133Z" fill="#1C1C1C"/>
        <path d="M73.5001 132.453C107.43 132.453 135.133 106.165 135.133 73.5003C135.133 40.8357 107.43 14.5471 73.5001 14.5471C39.5703 14.5471 11.8673 40.8357 11.8673 73.5003C11.8673 106.165 39.5703 132.453 73.5001 132.453Z" fill="#FF90E8"/>
        <path fill-rule="evenodd" clip-rule="evenodd" d="M9.1875 73.4998C9.1875 39.2579 38.1898 11.8669 73.5 11.8669C108.811 11.8669 137.813 39.2579 137.813 73.4998C137.813 107.742 108.811 135.133 73.5 135.133C38.1898 135.133 9.1875 107.742 9.1875 73.4998ZM73.5 16.189C40.3764 16.189 13.5038 41.8377 13.5038 73.4998C13.5038 105.162 40.3764 130.81 73.5 130.81C106.624 130.81 133.496 105.162 133.496 73.4998C133.496 41.8377 106.624 16.189 73.5 16.189Z" fill="#1C1C1C"/>
        <path d="M66.165 102.977C48.8494 102.977 38.664 88.9514 38.664 71.505C38.664 53.3739 49.8678 38.6643 71.2571 38.6643C93.3259 38.6643 100.795 53.7164 101.134 62.2682H85.1774C84.8382 57.4792 80.7637 50.2954 70.9179 50.2954C60.3933 50.2954 53.6027 59.5318 53.6027 70.8208C53.6027 82.1098 60.3933 91.3457 70.9179 91.3457C80.4245 91.3457 84.4985 83.8199 86.1962 76.2944H70.9179V70.1366H102.977V101.608H88.9122V81.7672C87.8934 88.9514 83.4797 102.977 66.165 102.977Z" fill="#1C1C1C"/>
    </g>
    <defs>
        <clipPath id="clip0_1929_151">
            <rect width="128.625" height="128.625" fill="white" transform="translate(9.1875 9.1875)"/>
        </clipPath>
    </defs>
</svg>
