<svg width="147" height="147" viewBox="0 0 147 147" fill="none"
    xmlns="http://www.w3.org/2000/svg">
    <g clip-path="url(#clip0_1929_173)">
        <path d="M46.7309 9.1875C33.1738 9.1875 24.0911 22.6373 29.5625 34.6102L44.7505 67.8381C45.51 69.4996 47.9517 69.4996 48.7112 67.8381L63.8992 34.6102C69.3706 22.6373 60.2879 9.1875 46.7309 9.1875Z" fill="#FFC233"/>
        <path d="M97.8716 30.2945C88.2854 20.7418 72.3168 23.8529 67.6902 36.1749L54.8486 70.3716C54.2065 72.0807 55.9337 73.8026 57.649 73.1628L91.9691 60.3674C104.335 55.7574 107.458 39.8453 97.8716 30.2945Z" fill="#FFC233"/>
        <path d="M93.5403 64.1457C105.555 58.693 119.055 67.743 119.055 81.2513C119.055 94.7596 105.555 103.81 93.5403 98.357L60.1916 83.2236C58.5249 82.4687 58.5249 80.0339 60.1916 79.279L93.5403 64.1457Z" fill="#FFC233"/>
        <path d="M97.8716 132.208C107.458 122.655 104.336 106.745 91.97 102.135L57.6499 89.3399C55.9337 88.7001 54.2074 90.4202 54.8495 92.1311L67.6911 126.328C72.3177 138.648 88.2854 141.759 97.8716 132.208Z" fill="#FFC233"/>
    </g>
    <defs>
        <clipPath id="clip0_1929_173">
            <rect width="128.625" height="128.625" fill="white" transform="translate(9.1875 9.1875)"/>
        </clipPath>
    </defs>
</svg>
