<svg height="50" viewBox="0 0 124 80" fill="none"
    xmlns="http://www.w3.org/2000/svg">
    <path d="M69.0309 27.4356H54.9698V52.7029H69.0309V27.4356Z" fill="black"></path>
    <path d="M55.8627 40.0693C55.8605 37.6359 56.4119 35.2338 57.4753 33.045C58.5387 30.8562 60.0861 28.938 62.0004 27.4356C59.6298 25.5723 56.7827 24.4136 53.7847 24.0918C50.7866 23.77 47.7585 24.2982 45.0464 25.616C42.3344 26.9338 40.0478 28.988 38.4481 31.5439C36.8483 34.0997 36 37.0541 36 40.0693C36 43.0845 36.8483 46.0388 38.4481 48.5947C40.0478 51.1506 42.3344 53.2048 45.0464 54.5226C47.7585 55.8404 50.7866 56.3686 53.7847 56.0468C56.7827 55.725 59.6298 54.5662 62.0004 52.7029C60.0861 51.2005 58.5387 49.2823 57.4753 47.0935C56.4119 44.9047 55.8605 42.5027 55.8627 40.0693Z" fill="black"></path>
    <path d="M88 40.0693C88.0001 43.0844 87.1519 46.0388 85.5522 48.5946C83.9526 51.1505 81.6661 53.2047 78.9541 54.5225C76.2421 55.8403 73.214 56.3686 70.216 56.0468C67.218 55.725 64.371 54.5662 62.0004 52.7029C63.913 51.199 65.4592 49.2805 66.5224 47.0921C67.5856 44.9036 68.1381 42.5023 68.1381 40.0693C68.1381 37.6362 67.5856 35.2349 66.5224 33.0465C65.4592 30.858 63.913 28.9395 62.0004 27.4356C64.371 25.5723 67.218 24.4135 70.216 24.0918C73.214 23.77 76.2421 24.2982 78.9541 25.616C81.6661 26.9338 83.9526 28.9881 85.5522 31.5439C87.1519 34.0998 88.0001 37.0541 88 40.0693Z" fill="black"></path>
    <path d="M86.4669 50.0267V49.5094H86.6754V49.4041H86.1442V49.5094H86.3529V50.0267H86.4669ZM87.4982 50.0267V49.403H87.3354L87.1481 49.832L86.9607 49.403H86.7978V50.0267H86.9128V49.5563L87.0884 49.9619H87.2077L87.3833 49.5552V50.0267H87.4982Z" fill="black"></path>
</svg>