<svg width="210" height="184" viewBox="0 0 210 184" fill="none"
    xmlns="http://www.w3.org/2000/svg">
    <g clip-path="url(#clip0_1937_458)">
        <path d="M131.801 121.48H117.51L116.316 120.287V86.8316C116.316 80.8794 113.977 76.2659 106.799 76.1047C103.105 76.0078 98.8785 76.1047 94.362 76.282L93.6845 76.9757V90.4932V120.271L92.4908 121.464H78.199L77.0053 120.271V63.1195L78.199 61.9258H110.364C122.865 61.9258 132.995 72.0559 132.995 84.5571V120.287L131.801 121.48Z" fill="black"/>
        <path d="M57.1162 153.145H55.1482L45.3247 143.321V141.353L60.3424 126.336H70.7467L72.1338 127.723V138.127L57.1162 153.145Z" fill="black"/>
        <path d="M45.3247 42.0367V40.0687L55.1482 30.2451H57.1162L72.1338 45.2627V55.667L70.7467 57.0543H60.3424L45.3247 42.0367Z" fill="black"/>
        <path d="M59.1485 100.059H1.98127L0.787598 98.865V84.541L1.98127 83.3473H59.1485L60.3422 84.541V98.865L59.1485 100.059Z" fill="black"/>
        <path d="M208.035 100.059H150.867L149.674 98.865V84.541L150.867 83.3473H208.035L209.229 84.541V98.865L208.035 100.059Z" fill="black"/>
        <path d="M96.7654 44.0691V1.19367L97.959 0H112.283L113.477 1.19367V44.0691L112.283 45.2627H97.959L96.7654 44.0691Z" fill="black"/>
        <path d="M96.7654 182.212V139.337L97.959 138.143H112.283L113.477 139.337V182.212L112.283 183.406H97.959L96.7654 182.212Z" fill="black"/>
    </g>
    <defs>
        <clipPath id="clip0_1937_458">
            <rect width="208.425" height="184" fill="white" transform="translate(0.787598)"/>
        </clipPath>
    </defs>
</svg>
