<svg height="50" viewBox="0 0 124 80" fill="none"
    xmlns="http://www.w3.org/2000/svg">
    <path d="M51.2084 38.1492C50.9825 39.8435 49.6271 39.8435 48.3846 39.8435H47.7069L48.2716 36.5679C48.2716 36.342 48.4975 36.229 48.7234 36.229H49.0623C49.9659 36.229 50.7566 36.229 51.2084 36.6808C51.2084 37.1327 51.2084 37.5845 51.2084 38.1492ZM50.6437 33.6311H45.7867C45.4478 33.6311 45.2219 33.857 45.1089 34.1959L43.1887 46.6207C43.1887 46.8467 43.3017 47.0726 43.6405 47.0726H45.8996C46.2385 47.0726 46.4644 46.8467 46.5773 46.5078L47.1421 43.1192C47.1421 42.7803 47.481 42.5544 47.8198 42.5544H49.4012C52.5639 42.5544 54.3711 40.9731 54.9359 37.9233C55.1618 36.5679 54.9359 35.5513 54.3711 34.7606C53.4675 34.0829 52.225 33.6311 50.6437 33.6311Z" fill="black"></path>
    <path d="M61.8259 42.6674C61.6 44.0228 60.5835 44.9265 59.228 44.9265C58.5503 44.9265 57.9855 44.7005 57.6467 44.2487C57.3078 43.7969 57.1948 43.2322 57.3078 42.6674C57.5337 41.3119 58.5503 40.4083 59.9058 40.4083C60.5835 40.4083 61.1482 40.6342 61.4871 41.086C61.713 41.4249 61.9389 41.9897 61.8259 42.6674ZM64.9887 38.1492H62.7296C62.5037 38.1492 62.3907 38.2622 62.2777 38.4881L62.1648 39.1658L62.0519 38.9399C61.6 38.2622 60.4705 37.9233 59.341 37.9233C56.7431 37.9233 54.5969 39.8436 54.1451 42.5544C53.9192 43.9099 54.2581 45.1524 55.0487 46.056C55.7265 46.8467 56.743 47.1855 57.9855 47.1855C60.0187 47.1855 61.1482 45.8301 61.1482 45.8301L61.0353 46.5078C61.0353 46.7337 61.1482 46.9596 61.4871 46.9596H63.5202C63.8591 46.9596 64.085 46.7337 64.198 46.3948L65.4405 38.4881C65.4405 38.3752 65.3275 38.1492 64.9887 38.1492Z" fill="black"></path>
    <path d="M77.3004 38.1492H74.9284C74.7025 38.1492 74.4766 38.2621 74.3636 38.488L71.2009 43.2321L69.8455 38.7139C69.7325 38.3751 69.5066 38.2621 69.1678 38.2621H66.9087C66.6828 38.2621 66.4569 38.488 66.5698 38.8269L69.1678 46.2818L66.7957 49.6704C66.5698 49.8963 66.7957 50.3481 67.1346 50.3481H69.5066C69.7325 50.3481 69.9584 50.2352 70.0714 50.0093L77.7522 38.8269C77.8652 38.488 77.6393 38.1492 77.3004 38.1492Z" fill="black"></path>
    <path d="M85.5461 38.1492C85.3202 39.8435 83.9647 39.8435 82.7222 39.8435H82.0445L82.6093 36.5679C82.6093 36.342 82.8352 36.229 83.0611 36.229H83.4C84.3036 36.229 85.0943 36.229 85.5461 36.6808C85.659 37.1327 85.659 37.5845 85.5461 38.1492ZM84.9813 33.6311H80.1243C79.7855 33.6311 79.5595 33.857 79.4466 34.1959L77.5264 46.6207C77.5264 46.8467 77.6393 47.0726 77.9782 47.0726H80.4632C80.6891 47.0726 80.915 46.9596 80.915 46.6207L81.4797 43.1192C81.4797 42.7803 81.8186 42.5544 82.1575 42.5544H83.7388C86.9015 42.5544 88.7088 40.9731 89.2735 37.9233C89.4995 36.5679 89.2735 35.5513 88.7088 34.7606C87.9181 34.0829 86.6756 33.6311 84.9813 33.6311Z" fill="black"></path>
    <path d="M96.2766 42.6674C96.0507 44.0228 95.0341 44.9265 93.6787 44.9265C93.001 44.9265 92.4362 44.7005 92.0974 44.2487C91.7585 43.7969 91.6455 43.2322 91.7585 42.6674C91.9844 41.3119 93.001 40.4083 94.3564 40.4083C95.0342 40.4083 95.5989 40.6342 95.9378 41.086C96.1637 41.4249 96.3896 41.9897 96.2766 42.6674ZM99.4393 38.1492H97.1803C96.9544 38.1492 96.8414 38.2622 96.7284 38.4881L96.6155 39.1658L96.5025 38.9399C96.0507 38.2622 94.9212 37.9233 93.7917 37.9233C91.1937 37.9233 89.0476 39.8436 88.5958 42.5544C88.3699 43.9099 88.7087 45.1524 89.4994 46.056C90.1771 46.8467 91.1937 47.1855 92.4362 47.1855C94.4694 47.1855 95.5989 45.8301 95.5989 45.8301L95.486 46.5078C95.486 46.7337 95.5989 46.9596 95.9378 46.9596H97.9709C98.3098 46.9596 98.5357 46.7337 98.6487 46.3948L99.8911 38.4881C99.8911 38.3752 99.6652 38.1492 99.4393 38.1492Z" fill="black"></path>
    <path d="M102.15 33.97L100.117 46.6207C100.117 46.8467 100.23 47.0726 100.569 47.0726H102.602C102.941 47.0726 103.167 46.8467 103.28 46.5078L105.2 34.0829C105.2 33.857 105.087 33.6311 104.748 33.6311H102.489C102.376 33.6311 102.263 33.857 102.15 33.97Z" fill="black"></path>
    <path d="M23.0829 49.4446L23.4218 47.0726H22.6311H18.6777L21.3886 29.7907C21.3886 29.7907 21.3886 29.6777 21.5016 29.6777H21.6145H28.2788C30.4249 29.6777 32.0062 30.1295 32.7969 31.0332C33.1358 31.485 33.3617 31.9368 33.4746 32.3886C33.5876 32.9534 33.5876 33.5181 33.4746 34.3088V34.7606L33.8135 34.9865C34.1524 35.0995 34.3783 35.3254 34.6042 35.5513C34.943 35.8902 35.1689 36.342 35.1689 36.9068C35.2819 37.4715 35.2819 38.1492 35.056 38.9399C34.8301 39.8435 34.6042 40.5213 34.2653 41.199C33.9264 41.7637 33.4746 42.2156 33.0228 42.6674C32.571 43.0062 31.8933 43.2321 31.3285 43.458C30.6508 43.571 29.9731 43.684 29.1824 43.684H28.6176C28.2788 43.684 27.9399 43.7969 27.6011 44.0228C27.3752 44.2487 27.1492 44.5876 27.0363 44.9264V45.1523L26.3586 49.3316V49.4446V49.5575C26.3586 49.5575 26.3586 49.5575 26.2456 49.5575H23.0829V49.4446Z" fill="black"></path>
    <path d="M34.2651 34.3087C34.2651 34.4217 34.2651 34.5346 34.1522 34.6476C33.2485 39.1657 30.3118 40.6341 26.4714 40.6341H24.5511C24.0993 40.6341 23.6475 40.973 23.6475 41.4248L22.6309 47.7502L22.405 49.5574C22.405 49.8963 22.6309 50.1222 22.8568 50.1222H26.3584C26.8102 50.1222 27.1491 49.7833 27.1491 49.4445V49.2186L27.8268 45.1522V44.9263C27.9397 44.4745 28.2786 44.2486 28.6175 44.2486H29.1822C32.5708 44.2486 35.1688 42.8932 35.8465 38.9398C36.1853 37.2455 35.9594 35.8901 35.1688 34.9864C34.9429 34.7605 34.604 34.5346 34.2651 34.3087Z" fill="black"></path>
    <path d="M33.3617 33.97C33.2487 33.97 33.1358 33.857 32.9099 33.857C32.7969 33.857 32.571 33.7441 32.4581 33.7441C31.8933 33.6311 31.3285 33.6311 30.7638 33.6311H25.5679C25.455 33.6311 25.342 33.6311 25.229 33.7441C25.0031 33.857 24.7772 34.0829 24.7772 34.3088L23.6477 41.3119V41.5378C23.7607 41.086 24.0995 40.7472 24.5513 40.7472H26.4715C30.312 40.7472 33.2487 39.1658 34.1524 34.7606C34.1524 34.6477 34.1524 34.5347 34.2653 34.4218C34.0394 34.3088 33.8135 34.1959 33.5876 34.0829C33.4746 33.97 33.3617 33.97 33.3617 33.97Z" fill="black"></path>
    <path d="M24.7772 34.3088C24.7772 34.0829 25.0031 33.857 25.229 33.744C25.342 33.744 25.4549 33.6311 25.5679 33.6311H30.7637C31.3285 33.6311 32.0062 33.6311 32.458 33.744C32.571 33.744 32.7969 33.744 32.9098 33.857C33.0228 33.857 33.1357 33.9699 33.3617 33.9699C33.4746 33.9699 33.4746 33.9699 33.5876 34.0829C33.8135 34.1959 34.0394 34.3088 34.2653 34.4218C34.4912 32.7275 34.2653 31.5979 33.3617 30.5813C32.3451 29.4518 30.5378 29 28.2787 29H21.6145C21.1627 29 20.7109 29.3389 20.7109 29.7907L18 47.1855C18 47.5244 18.2259 47.8632 18.5648 47.8632H22.6311L23.6477 41.3119L24.7772 34.3088Z" fill="black"></path>
</svg>