<svg xmlns="http://www.w3.org/2000/svg" viewBox="0 0 870 256" fill="none">
    <path d="M338.943 208.357V45.6212H403.806C412.33 45.6212 420.08 47.791 427.054 52.1307C434.028 56.3153 439.53 62.1272 443.56 69.5666C447.745 77.006 449.837 85.2977 449.837 94.4419C449.837 103.896 447.745 112.421 443.56 120.015C439.53 127.609 434.028 133.654 427.054 138.148C420.08 142.642 412.33 144.89 403.806 144.89H359.17V208.357H338.943ZM359.17 125.129H404.27C408.92 125.129 413.105 123.812 416.825 121.177C420.544 118.387 423.489 114.668 425.659 110.018C427.829 105.369 428.914 100.176 428.914 94.4419C428.914 88.8628 427.829 83.9028 425.659 79.5632C423.489 75.2236 420.544 71.7364 416.825 69.1016C413.105 66.4668 408.92 65.1495 404.27 65.1495H359.17V125.129Z" fill="#010101"/>
    <path d="M524.744 210.682C512.81 210.682 502.116 207.969 492.662 202.544C483.363 196.965 476.002 189.448 470.577 179.994C465.152 170.385 462.44 159.459 462.44 147.215C462.44 134.971 465.152 124.122 470.577 114.668C476.002 105.213 483.363 97.7743 492.662 92.3496C502.116 86.9249 512.81 84.213 524.744 84.213C536.678 84.213 547.295 86.9249 556.594 92.3496C566.048 97.7743 573.41 105.213 578.68 114.668C584.103 124.122 586.816 134.971 586.816 147.215C586.816 159.459 584.103 170.385 578.68 179.994C573.41 189.448 566.048 196.965 556.594 202.544C547.295 207.969 536.678 210.682 524.744 210.682ZM524.744 192.548C532.959 192.548 540.244 190.611 546.597 186.736C552.951 182.707 557.911 177.282 561.477 170.463C565.196 163.643 566.978 155.895 566.824 147.215C566.978 138.535 565.196 130.864 561.477 124.199C557.911 117.38 552.951 112.033 546.597 108.158C540.244 104.284 532.959 102.346 524.744 102.346C516.53 102.346 509.168 104.284 502.659 108.158C496.304 112.033 491.344 117.38 487.78 124.199C484.216 131.019 482.434 138.691 482.434 147.215C482.434 155.895 484.216 163.643 487.78 170.463C491.344 177.282 496.304 182.707 502.659 186.736C509.168 190.611 516.53 192.548 524.744 192.548Z" fill="#010101"/>
    <path d="M608.059 208.357V36.3221H627.587V208.357H608.059Z" fill="#010101"/>
    <path d="M704.631 210.682C694.247 210.682 684.793 207.969 676.268 202.544C667.899 196.965 661.235 189.371 656.275 179.762C651.316 170.153 648.836 159.304 648.836 147.215C648.836 134.971 651.393 124.122 656.507 114.668C661.622 105.213 668.442 97.7743 676.966 92.3496C685.646 86.9249 695.332 84.213 706.026 84.213C712.38 84.213 718.193 85.143 723.461 87.0025C728.886 88.8627 733.691 91.4975 737.876 94.9067C742.06 98.1615 745.548 102.036 748.338 106.531C751.127 110.87 752.986 115.52 753.917 120.48L748.802 118.154L749.034 86.7705H768.562V208.357H749.034V178.833L753.917 176.275C752.832 180.769 750.739 185.109 747.639 189.294C744.695 193.479 740.975 197.197 736.481 200.452C732.141 203.553 727.259 206.032 721.834 207.892C716.409 209.751 710.676 210.682 704.631 210.682ZM709.28 192.315C717.186 192.315 724.159 190.379 730.203 186.504C736.249 182.629 741.053 177.36 744.618 170.696C748.182 163.876 749.965 156.049 749.965 147.215C749.965 138.535 748.182 130.864 744.618 124.199C741.208 117.535 736.403 112.265 730.203 108.391C724.159 104.516 717.186 102.579 709.28 102.579C701.376 102.579 694.402 104.516 688.358 108.391C682.313 112.265 677.508 117.535 673.943 124.199C670.534 130.864 668.83 138.535 668.83 147.215C668.83 155.895 670.534 163.643 673.943 170.463C677.508 177.282 682.313 182.629 688.358 186.504C694.402 190.379 701.376 192.315 709.28 192.315Z" fill="#010101"/>
    <path d="M793.653 208.357V86.7705H813.182L813.647 120.944L811.555 115.132C813.259 109.398 816.049 104.206 819.924 99.5561C823.798 94.9067 828.371 91.187 833.64 88.397C839.064 85.6079 844.799 84.213 850.843 84.213C853.479 84.213 855.961 84.4455 858.281 84.9105C860.763 85.2205 862.776 85.6855 864.328 86.3048L858.98 107.925C856.967 106.996 854.877 106.298 852.703 105.834C850.533 105.369 848.518 105.136 846.658 105.136C841.699 105.136 837.128 106.066 832.942 107.925C828.913 109.785 825.425 112.343 822.481 115.598C819.691 118.697 817.444 122.34 815.739 126.524C814.19 130.709 813.414 135.204 813.414 140.008V208.357H793.653Z" fill="#010101"/>
    <path fill-rule="evenodd" clip-rule="evenodd" d="M55.3248 229.651C111.655 267.782 188.23 253.028 226.36 196.698C264.492 140.368 249.739 63.7931 193.41 25.6623C137.08 -12.4685 60.5034 2.28475 22.3726 58.6146C-15.7584 114.944 -1.00507 191.52 55.3248 229.651ZM71.6617 230.657C123.19 257.019 188.555 232.273 217.659 175.387C246.764 118.499 228.586 51.0116 177.057 24.6492C125.53 -1.7131 60.1643 23.0323 31.06 79.9197C1.95577 136.807 20.1338 204.294 71.6617 230.657Z" fill="#010101"/>
    <path fill-rule="evenodd" clip-rule="evenodd" d="M86.3458 244.111C132.859 259.25 187.577 219.257 208.563 154.783C229.547 90.3102 208.851 25.7716 162.338 10.6325C115.824 -4.5065 61.1071 35.4868 40.1223 99.9604C19.1378 164.433 39.8329 228.972 86.3458 244.111ZM100.575 239.211C139.939 247.607 182.504 204.465 195.646 142.853C208.786 81.24 187.529 24.4864 148.164 16.0903C108.8 7.69414 66.2356 50.835 53.094 112.448C39.9526 174.061 61.2104 230.814 100.575 239.211Z" fill="#010101"/>
    <path fill-rule="evenodd" clip-rule="evenodd" d="M111.366 249.371C142.489 252.693 173.549 200.783 180.741 133.425C187.934 66.0668 168.534 8.76815 137.412 5.445C106.29 2.12182 75.2299 54.0326 68.0375 121.391C60.8452 188.748 80.244 246.048 111.366 249.371ZM125.93 228.869C148.453 228.513 165.996 182.918 165.112 127.029C164.23 71.1388 145.255 26.12 122.732 26.4758C100.209 26.8317 82.6659 72.4274 83.5488 128.317C84.4319 184.206 103.406 229.225 125.93 228.869Z" fill="#010101"/>
</svg>