<svg width="147" height="147" viewBox="0 0 147 147" fill="none"
    xmlns="http://www.w3.org/2000/svg">
    <path fill-rule="evenodd" clip-rule="evenodd" d="M36.6396 123.372C65.2048 142.708 104.036 135.227 123.372 106.662C142.708 78.0971 135.227 39.2656 106.663 19.9294C78.0975 0.593264 39.2657 8.07466 19.9295 36.6396C0.593248 65.2043 8.07466 104.036 36.6396 123.372ZM44.9241 123.883C71.0543 137.251 104.201 124.702 118.96 95.8549C133.718 67.0071 124.5 32.7841 98.3701 19.4157C72.2407 6.04735 39.0937 18.5958 24.3349 47.4434C9.5761 76.2908 18.7942 110.514 44.9241 123.883Z" fill="#0062FF"/>
    <path fill-rule="evenodd" clip-rule="evenodd" d="M52.3704 130.705C75.9574 138.382 103.705 118.102 114.347 85.4071C124.988 52.7128 114.493 19.9852 90.906 12.3081C67.3189 4.63109 39.5718 24.9117 28.9304 57.6064C18.2891 90.3007 28.7837 123.028 52.3704 130.705ZM59.5858 128.22C79.5474 132.478 101.132 110.601 107.797 79.3573C114.46 48.1132 103.681 19.3334 83.7187 15.0758C63.7571 10.8181 42.1725 32.6948 35.5084 63.939C28.8443 95.1827 39.6242 123.963 59.5858 128.22Z" fill="#0062FF"/>
    <path fill-rule="evenodd" clip-rule="evenodd" d="M68.6691 132.959C84.4516 134.644 100.202 108.32 103.849 74.1628C107.497 40.0055 97.6592 10.9493 81.8772 9.2641C66.0951 7.57891 50.3445 33.9029 46.6972 68.0603C43.0499 102.217 52.8871 131.274 68.6691 132.959ZM76.0545 122.563C87.4758 122.382 96.372 99.2606 95.9239 70.9193C95.4767 42.5775 85.8543 19.7484 74.433 19.9288C63.0112 20.1093 54.1152 43.231 54.563 71.5728C55.0108 99.9142 64.6327 122.743 76.0545 122.563Z" fill="#0062FF"/>
</svg>
