<svg width="185" height="185" viewBox="0 0 185 185" fill="none"
  xmlns="http://www.w3.org/2000/svg">
  <g clip-path="url(#clip0_1937_482)">
    <g clip-path="url(#clip1_1937_482)">
      <mask id="mask0_1937_482" style="mask-type:luminance" maskUnits="userSpaceOnUse" x="0" y="37" width="185" height="112">
        <path d="M185 37H0V148.289H185V37Z" fill="white"/>
      </mask>
      <g mask="url(#mask0_1937_482)">
        <path d="M92.5 37C67.8336 37 52.4164 49.3336 46.25 74C55.5 61.6664 66.2914 57.0414 78.625 60.125C85.6615 61.8839 90.6912 66.9895 96.2585 72.64C105.328 81.8459 115.824 92.5 138.75 92.5C163.416 92.5 178.834 80.1664 185 55.5C175.75 67.8336 164.959 72.4586 152.625 69.375C145.588 67.6161 140.559 62.5105 134.991 56.86C125.922 47.6541 115.426 37 92.5 37ZM46.25 92.5C21.5836 92.5 6.16643 104.834 0 129.5C9.25 117.166 20.0414 112.541 32.375 115.625C39.4115 117.384 44.4412 122.49 50.0085 128.14C59.0779 137.346 69.5737 148 92.5 148C117.166 148 132.584 135.666 138.75 111C129.5 123.334 118.709 127.959 106.375 124.875C99.3385 123.116 94.3088 118.01 88.7415 112.36C79.6721 103.154 69.1763 92.5 46.25 92.5Z" fill="#38BDF9"/>
      </g>
    </g>
  </g>
  <defs>
    <clipPath id="clip0_1937_482">
      <rect width="185" height="185" fill="white"/>
    </clipPath>
    <clipPath id="clip1_1937_482">
      <rect width="185" height="111.289" fill="white" transform="translate(0 37)"/>
    </clipPath>
  </defs>
</svg>
