<svg height="50" viewBox="0 0 124 80" fill="none"
    xmlns="http://www.w3.org/2000/svg">
    <path fill-rule="evenodd" clip-rule="evenodd" d="M44.0006 49.7249H38.4618L34.3084 33.4134C34.1113 32.6631 33.6927 31.9997 33.077 31.6871C31.5404 30.9014 29.8472 30.2761 28 29.9608V29.3328H36.9225C38.154 29.3328 39.0776 30.2761 39.2315 31.3717L41.3865 43.1378L46.9226 29.3328H52.3075L44.0006 49.7249ZM55.3851 49.7249H50.1542L54.4616 29.3328H59.6925L55.3851 49.7249ZM66.4623 34.9789C66.6162 33.8806 67.5398 33.2526 68.6173 33.2526C70.3106 33.0949 72.155 33.4103 73.6943 34.1933L74.6179 29.8027C73.0786 29.1747 71.3854 28.8594 69.8488 28.8594C64.7718 28.8594 61.0775 31.684 61.0775 35.6042C61.0775 38.5865 63.6943 40.1524 65.5414 41.0958C67.5398 42.0364 68.3095 42.6644 68.1555 43.605C68.1555 45.016 66.6162 45.644 65.0796 45.644C63.2325 45.644 61.3853 45.1736 59.6948 44.388L58.7712 48.7812C60.6184 49.5642 62.6168 49.8795 64.4639 49.8795C70.1566 50.0345 73.6943 47.2126 73.6943 42.977C73.6943 37.6431 66.4623 37.3305 66.4623 34.9789ZM91.998 49.7249L87.8445 29.3328H83.3833C82.4597 29.3328 81.5361 29.9608 81.2282 30.9014L73.5371 49.7249H78.922L79.9968 46.7454H86.6131L87.2288 49.7249H91.998ZM84.1536 34.8221L85.6902 42.5076H81.3829L84.1536 34.8221Z" fill="black"></path>
</svg>